<?xml version="1.0" encoding="utf-8" standalone="no"?>
<!DOCTYPE svg PUBLIC "-//W3C//DTD SVG 1.1//EN"
  "http://www.w3.org/Graphics/SVG/1.1/DTD/svg11.dtd">
<svg xmlns:xlink="http://www.w3.org/1999/xlink" width="720pt" height="360pt" viewBox="0 0 720 360" xmlns="http://www.w3.org/2000/svg" version="1.1">
 <metadata>
  <rdf:RDF xmlns:dc="http://purl.org/dc/elements/1.1/" xmlns:cc="http://creativecommons.org/ns#" xmlns:rdf="http://www.w3.org/1999/02/22-rdf-syntax-ns#">
   <cc:Work>
    <dc:type rdf:resource="http://purl.org/dc/dcmitype/StillImage"/>
    <dc:date>2024-04-11T16:54:59.914532</dc:date>
    <dc:format>image/svg+xml</dc:format>
    <dc:creator>
     <cc:Agent>
      <dc:title>Matplotlib v3.8.0, https://matplotlib.org/</dc:title>
     </cc:Agent>
    </dc:creator>
   </cc:Work>
  </rdf:RDF>
 </metadata>
 <defs>
  <style type="text/css">*{stroke-linejoin: round; stroke-linecap: butt}</style>
 </defs>
 <g id="figure_1">
  <g id="patch_1">
   <path d="M 0 360 
L 720 360 
L 720 0 
L 0 0 
z
" style="fill: #ffffff"/>
  </g>
  <g id="axes_1">
   <g id="patch_2">
    <path d="M 90 306 
L 344.634146 306 
L 344.634146 43.2 
L 90 43.2 
z
" style="fill: #ffffff"/>
   </g>
   <g id="matplotlib.axis_1">
    <g id="xtick_1">
     <g id="line2d_1">
      <defs>
       <path id="m3a7d1ac500" d="M 0 0 
L 0 3.5 
" style="stroke: #000000; stroke-width: 0.8"/>
      </defs>
      <g>
       <use xlink:href="#m3a7d1ac500" x="130.509978" y="306" style="stroke: #000000; stroke-width: 0.8"/>
      </g>
     </g>
     <g id="text_1">
      <!-- 75 -->
      <g transform="translate(121.602478 323.637812) scale(0.14 -0.14)">
       <defs>
        <path id="DejaVuSans-37" d="M 525 4666 
L 3525 4666 
L 3525 4397 
L 1831 0 
L 1172 0 
L 2766 4134 
L 525 4134 
L 525 4666 
z
" transform="scale(0.015625)"/>
        <path id="DejaVuSans-35" d="M 691 4666 
L 3169 4666 
L 3169 4134 
L 1269 4134 
L 1269 2991 
Q 1406 3038 1543 3061 
Q 1681 3084 1819 3084 
Q 2600 3084 3056 2656 
Q 3513 2228 3513 1497 
Q 3513 744 3044 326 
Q 2575 -91 1722 -91 
Q 1428 -91 1123 -41 
Q 819 9 494 109 
L 494 744 
Q 775 591 1075 516 
Q 1375 441 1709 441 
Q 2250 441 2565 725 
Q 2881 1009 2881 1497 
Q 2881 1984 2565 2268 
Q 2250 2553 1709 2553 
Q 1456 2553 1204 2497 
Q 953 2441 691 2322 
L 691 4666 
z
" transform="scale(0.015625)"/>
       </defs>
       <use xlink:href="#DejaVuSans-37"/>
       <use xlink:href="#DejaVuSans-35" x="63.623047"/>
      </g>
     </g>
    </g>
    <g id="xtick_2">
     <g id="line2d_2">
      <g>
       <use xlink:href="#m3a7d1ac500" x="178.736142" y="306" style="stroke: #000000; stroke-width: 0.8"/>
      </g>
     </g>
     <g id="text_2">
      <!-- 100 -->
      <g transform="translate(165.374892 323.637812) scale(0.14 -0.14)">
       <defs>
        <path id="DejaVuSans-31" d="M 794 531 
L 1825 531 
L 1825 4091 
L 703 3866 
L 703 4441 
L 1819 4666 
L 2450 4666 
L 2450 531 
L 3481 531 
L 3481 0 
L 794 0 
L 794 531 
z
" transform="scale(0.015625)"/>
        <path id="DejaVuSans-30" d="M 2034 4250 
Q 1547 4250 1301 3770 
Q 1056 3291 1056 2328 
Q 1056 1369 1301 889 
Q 1547 409 2034 409 
Q 2525 409 2770 889 
Q 3016 1369 3016 2328 
Q 3016 3291 2770 3770 
Q 2525 4250 2034 4250 
z
M 2034 4750 
Q 2819 4750 3233 4129 
Q 3647 3509 3647 2328 
Q 3647 1150 3233 529 
Q 2819 -91 2034 -91 
Q 1250 -91 836 529 
Q 422 1150 422 2328 
Q 422 3509 836 4129 
Q 1250 4750 2034 4750 
z
" transform="scale(0.015625)"/>
       </defs>
       <use xlink:href="#DejaVuSans-31"/>
       <use xlink:href="#DejaVuSans-30" x="63.623047"/>
       <use xlink:href="#DejaVuSans-30" x="127.246094"/>
      </g>
     </g>
    </g>
    <g id="xtick_3">
     <g id="line2d_3">
      <g>
       <use xlink:href="#m3a7d1ac500" x="226.962306" y="306" style="stroke: #000000; stroke-width: 0.8"/>
      </g>
     </g>
     <g id="text_3">
      <!-- 125 -->
      <g transform="translate(213.601056 323.637812) scale(0.14 -0.14)">
       <defs>
        <path id="DejaVuSans-32" d="M 1228 531 
L 3431 531 
L 3431 0 
L 469 0 
L 469 531 
Q 828 903 1448 1529 
Q 2069 2156 2228 2338 
Q 2531 2678 2651 2914 
Q 2772 3150 2772 3378 
Q 2772 3750 2511 3984 
Q 2250 4219 1831 4219 
Q 1534 4219 1204 4116 
Q 875 4013 500 3803 
L 500 4441 
Q 881 4594 1212 4672 
Q 1544 4750 1819 4750 
Q 2544 4750 2975 4387 
Q 3406 4025 3406 3419 
Q 3406 3131 3298 2873 
Q 3191 2616 2906 2266 
Q 2828 2175 2409 1742 
Q 1991 1309 1228 531 
z
" transform="scale(0.015625)"/>
       </defs>
       <use xlink:href="#DejaVuSans-31"/>
       <use xlink:href="#DejaVuSans-32" x="63.623047"/>
       <use xlink:href="#DejaVuSans-35" x="127.246094"/>
      </g>
     </g>
    </g>
    <g id="xtick_4">
     <g id="line2d_4">
      <g>
       <use xlink:href="#m3a7d1ac500" x="275.18847" y="306" style="stroke: #000000; stroke-width: 0.8"/>
      </g>
     </g>
     <g id="text_4">
      <!-- 150 -->
      <g transform="translate(261.82722 323.637812) scale(0.14 -0.14)">
       <use xlink:href="#DejaVuSans-31"/>
       <use xlink:href="#DejaVuSans-35" x="63.623047"/>
       <use xlink:href="#DejaVuSans-30" x="127.246094"/>
      </g>
     </g>
    </g>
    <g id="xtick_5">
     <g id="line2d_5">
      <g>
       <use xlink:href="#m3a7d1ac500" x="323.414634" y="306" style="stroke: #000000; stroke-width: 0.8"/>
      </g>
     </g>
     <g id="text_5">
      <!-- 175 -->
      <g transform="translate(310.053384 323.637812) scale(0.14 -0.14)">
       <use xlink:href="#DejaVuSans-31"/>
       <use xlink:href="#DejaVuSans-37" x="63.623047"/>
       <use xlink:href="#DejaVuSans-35" x="127.246094"/>
      </g>
     </g>
    </g>
    <g id="text_6">
     <!-- pyramidalization angle / $^{\circ}$ -->
     <g transform="translate(114.117073 342.709375) scale(0.16 -0.16)">
      <defs>
       <path id="DejaVuSans-70" d="M 1159 525 
L 1159 -1331 
L 581 -1331 
L 581 3500 
L 1159 3500 
L 1159 2969 
Q 1341 3281 1617 3432 
Q 1894 3584 2278 3584 
Q 2916 3584 3314 3078 
Q 3713 2572 3713 1747 
Q 3713 922 3314 415 
Q 2916 -91 2278 -91 
Q 1894 -91 1617 61 
Q 1341 213 1159 525 
z
M 3116 1747 
Q 3116 2381 2855 2742 
Q 2594 3103 2138 3103 
Q 1681 3103 1420 2742 
Q 1159 2381 1159 1747 
Q 1159 1113 1420 752 
Q 1681 391 2138 391 
Q 2594 391 2855 752 
Q 3116 1113 3116 1747 
z
" transform="scale(0.015625)"/>
       <path id="DejaVuSans-79" d="M 2059 -325 
Q 1816 -950 1584 -1140 
Q 1353 -1331 966 -1331 
L 506 -1331 
L 506 -850 
L 844 -850 
Q 1081 -850 1212 -737 
Q 1344 -625 1503 -206 
L 1606 56 
L 191 3500 
L 800 3500 
L 1894 763 
L 2988 3500 
L 3597 3500 
L 2059 -325 
z
" transform="scale(0.015625)"/>
       <path id="DejaVuSans-72" d="M 2631 2963 
Q 2534 3019 2420 3045 
Q 2306 3072 2169 3072 
Q 1681 3072 1420 2755 
Q 1159 2438 1159 1844 
L 1159 0 
L 581 0 
L 581 3500 
L 1159 3500 
L 1159 2956 
Q 1341 3275 1631 3429 
Q 1922 3584 2338 3584 
Q 2397 3584 2469 3576 
Q 2541 3569 2628 3553 
L 2631 2963 
z
" transform="scale(0.015625)"/>
       <path id="DejaVuSans-61" d="M 2194 1759 
Q 1497 1759 1228 1600 
Q 959 1441 959 1056 
Q 959 750 1161 570 
Q 1363 391 1709 391 
Q 2188 391 2477 730 
Q 2766 1069 2766 1631 
L 2766 1759 
L 2194 1759 
z
M 3341 1997 
L 3341 0 
L 2766 0 
L 2766 531 
Q 2569 213 2275 61 
Q 1981 -91 1556 -91 
Q 1019 -91 701 211 
Q 384 513 384 1019 
Q 384 1609 779 1909 
Q 1175 2209 1959 2209 
L 2766 2209 
L 2766 2266 
Q 2766 2663 2505 2880 
Q 2244 3097 1772 3097 
Q 1472 3097 1187 3025 
Q 903 2953 641 2809 
L 641 3341 
Q 956 3463 1253 3523 
Q 1550 3584 1831 3584 
Q 2591 3584 2966 3190 
Q 3341 2797 3341 1997 
z
" transform="scale(0.015625)"/>
       <path id="DejaVuSans-6d" d="M 3328 2828 
Q 3544 3216 3844 3400 
Q 4144 3584 4550 3584 
Q 5097 3584 5394 3201 
Q 5691 2819 5691 2113 
L 5691 0 
L 5113 0 
L 5113 2094 
Q 5113 2597 4934 2840 
Q 4756 3084 4391 3084 
Q 3944 3084 3684 2787 
Q 3425 2491 3425 1978 
L 3425 0 
L 2847 0 
L 2847 2094 
Q 2847 2600 2669 2842 
Q 2491 3084 2119 3084 
Q 1678 3084 1418 2786 
Q 1159 2488 1159 1978 
L 1159 0 
L 581 0 
L 581 3500 
L 1159 3500 
L 1159 2956 
Q 1356 3278 1631 3431 
Q 1906 3584 2284 3584 
Q 2666 3584 2933 3390 
Q 3200 3197 3328 2828 
z
" transform="scale(0.015625)"/>
       <path id="DejaVuSans-69" d="M 603 3500 
L 1178 3500 
L 1178 0 
L 603 0 
L 603 3500 
z
M 603 4863 
L 1178 4863 
L 1178 4134 
L 603 4134 
L 603 4863 
z
" transform="scale(0.015625)"/>
       <path id="DejaVuSans-64" d="M 2906 2969 
L 2906 4863 
L 3481 4863 
L 3481 0 
L 2906 0 
L 2906 525 
Q 2725 213 2448 61 
Q 2172 -91 1784 -91 
Q 1150 -91 751 415 
Q 353 922 353 1747 
Q 353 2572 751 3078 
Q 1150 3584 1784 3584 
Q 2172 3584 2448 3432 
Q 2725 3281 2906 2969 
z
M 947 1747 
Q 947 1113 1208 752 
Q 1469 391 1925 391 
Q 2381 391 2643 752 
Q 2906 1113 2906 1747 
Q 2906 2381 2643 2742 
Q 2381 3103 1925 3103 
Q 1469 3103 1208 2742 
Q 947 2381 947 1747 
z
" transform="scale(0.015625)"/>
       <path id="DejaVuSans-6c" d="M 603 4863 
L 1178 4863 
L 1178 0 
L 603 0 
L 603 4863 
z
" transform="scale(0.015625)"/>
       <path id="DejaVuSans-7a" d="M 353 3500 
L 3084 3500 
L 3084 2975 
L 922 459 
L 3084 459 
L 3084 0 
L 275 0 
L 275 525 
L 2438 3041 
L 353 3041 
L 353 3500 
z
" transform="scale(0.015625)"/>
       <path id="DejaVuSans-74" d="M 1172 4494 
L 1172 3500 
L 2356 3500 
L 2356 3053 
L 1172 3053 
L 1172 1153 
Q 1172 725 1289 603 
Q 1406 481 1766 481 
L 2356 481 
L 2356 0 
L 1766 0 
Q 1100 0 847 248 
Q 594 497 594 1153 
L 594 3053 
L 172 3053 
L 172 3500 
L 594 3500 
L 594 4494 
L 1172 4494 
z
" transform="scale(0.015625)"/>
       <path id="DejaVuSans-6f" d="M 1959 3097 
Q 1497 3097 1228 2736 
Q 959 2375 959 1747 
Q 959 1119 1226 758 
Q 1494 397 1959 397 
Q 2419 397 2687 759 
Q 2956 1122 2956 1747 
Q 2956 2369 2687 2733 
Q 2419 3097 1959 3097 
z
M 1959 3584 
Q 2709 3584 3137 3096 
Q 3566 2609 3566 1747 
Q 3566 888 3137 398 
Q 2709 -91 1959 -91 
Q 1206 -91 779 398 
Q 353 888 353 1747 
Q 353 2609 779 3096 
Q 1206 3584 1959 3584 
z
" transform="scale(0.015625)"/>
       <path id="DejaVuSans-6e" d="M 3513 2113 
L 3513 0 
L 2938 0 
L 2938 2094 
Q 2938 2591 2744 2837 
Q 2550 3084 2163 3084 
Q 1697 3084 1428 2787 
Q 1159 2491 1159 1978 
L 1159 0 
L 581 0 
L 581 3500 
L 1159 3500 
L 1159 2956 
Q 1366 3272 1645 3428 
Q 1925 3584 2291 3584 
Q 2894 3584 3203 3211 
Q 3513 2838 3513 2113 
z
" transform="scale(0.015625)"/>
       <path id="DejaVuSans-20" transform="scale(0.015625)"/>
       <path id="DejaVuSans-67" d="M 2906 1791 
Q 2906 2416 2648 2759 
Q 2391 3103 1925 3103 
Q 1463 3103 1205 2759 
Q 947 2416 947 1791 
Q 947 1169 1205 825 
Q 1463 481 1925 481 
Q 2391 481 2648 825 
Q 2906 1169 2906 1791 
z
M 3481 434 
Q 3481 -459 3084 -895 
Q 2688 -1331 1869 -1331 
Q 1566 -1331 1297 -1286 
Q 1028 -1241 775 -1147 
L 775 -588 
Q 1028 -725 1275 -790 
Q 1522 -856 1778 -856 
Q 2344 -856 2625 -561 
Q 2906 -266 2906 331 
L 2906 616 
Q 2728 306 2450 153 
Q 2172 0 1784 0 
Q 1141 0 747 490 
Q 353 981 353 1791 
Q 353 2603 747 3093 
Q 1141 3584 1784 3584 
Q 2172 3584 2450 3431 
Q 2728 3278 2906 2969 
L 2906 3500 
L 3481 3500 
L 3481 434 
z
" transform="scale(0.015625)"/>
       <path id="DejaVuSans-65" d="M 3597 1894 
L 3597 1613 
L 953 1613 
Q 991 1019 1311 708 
Q 1631 397 2203 397 
Q 2534 397 2845 478 
Q 3156 559 3463 722 
L 3463 178 
Q 3153 47 2828 -22 
Q 2503 -91 2169 -91 
Q 1331 -91 842 396 
Q 353 884 353 1716 
Q 353 2575 817 3079 
Q 1281 3584 2069 3584 
Q 2775 3584 3186 3129 
Q 3597 2675 3597 1894 
z
M 3022 2063 
Q 3016 2534 2758 2815 
Q 2500 3097 2075 3097 
Q 1594 3097 1305 2825 
Q 1016 2553 972 2059 
L 3022 2063 
z
" transform="scale(0.015625)"/>
       <path id="DejaVuSans-2f" d="M 1625 4666 
L 2156 4666 
L 531 -594 
L 0 -594 
L 1625 4666 
z
" transform="scale(0.015625)"/>
       <path id="DejaVuSans-2218" d="M 2000 2619 
Q 1750 2619 1578 2445 
Q 1406 2272 1406 2022 
Q 1406 1775 1578 1605 
Q 1750 1435 2000 1435 
Q 2250 1435 2422 1605 
Q 2594 1775 2594 2022 
Q 2594 2269 2420 2444 
Q 2247 2619 2000 2619 
z
M 2000 3022 
Q 2200 3022 2384 2945 
Q 2569 2869 2703 2725 
Q 2847 2585 2919 2406 
Q 2991 2228 2991 2022 
Q 2991 1610 2702 1324 
Q 2413 1038 1994 1038 
Q 1572 1038 1290 1319 
Q 1009 1600 1009 2022 
Q 1009 2441 1296 2731 
Q 1584 3022 2000 3022 
z
" transform="scale(0.015625)"/>
      </defs>
      <use xlink:href="#DejaVuSans-70" transform="translate(0 0.015625)"/>
      <use xlink:href="#DejaVuSans-79" transform="translate(63.476562 0.015625)"/>
      <use xlink:href="#DejaVuSans-72" transform="translate(122.65625 0.015625)"/>
      <use xlink:href="#DejaVuSans-61" transform="translate(163.769531 0.015625)"/>
      <use xlink:href="#DejaVuSans-6d" transform="translate(225.048828 0.015625)"/>
      <use xlink:href="#DejaVuSans-69" transform="translate(322.460938 0.015625)"/>
      <use xlink:href="#DejaVuSans-64" transform="translate(350.244141 0.015625)"/>
      <use xlink:href="#DejaVuSans-61" transform="translate(413.720703 0.015625)"/>
      <use xlink:href="#DejaVuSans-6c" transform="translate(475 0.015625)"/>
      <use xlink:href="#DejaVuSans-69" transform="translate(502.783203 0.015625)"/>
      <use xlink:href="#DejaVuSans-7a" transform="translate(530.566406 0.015625)"/>
      <use xlink:href="#DejaVuSans-61" transform="translate(583.056641 0.015625)"/>
      <use xlink:href="#DejaVuSans-74" transform="translate(644.335938 0.015625)"/>
      <use xlink:href="#DejaVuSans-69" transform="translate(683.544922 0.015625)"/>
      <use xlink:href="#DejaVuSans-6f" transform="translate(711.328125 0.015625)"/>
      <use xlink:href="#DejaVuSans-6e" transform="translate(772.509766 0.015625)"/>
      <use xlink:href="#DejaVuSans-20" transform="translate(835.888672 0.015625)"/>
      <use xlink:href="#DejaVuSans-61" transform="translate(867.675781 0.015625)"/>
      <use xlink:href="#DejaVuSans-6e" transform="translate(928.955078 0.015625)"/>
      <use xlink:href="#DejaVuSans-67" transform="translate(992.333984 0.015625)"/>
      <use xlink:href="#DejaVuSans-6c" transform="translate(1055.810547 0.015625)"/>
      <use xlink:href="#DejaVuSans-65" transform="translate(1083.59375 0.015625)"/>
      <use xlink:href="#DejaVuSans-20" transform="translate(1145.117188 0.015625)"/>
      <use xlink:href="#DejaVuSans-2f" transform="translate(1176.904297 0.015625)"/>
      <use xlink:href="#DejaVuSans-20" transform="translate(1210.595703 0.015625)"/>
      <use xlink:href="#DejaVuSans-2218" transform="translate(1243.339844 38.296875) scale(0.7)"/>
     </g>
    </g>
   </g>
   <g id="matplotlib.axis_2">
    <g id="ytick_1">
     <g id="line2d_6">
      <defs>
       <path id="m93e3b05476" d="M 0 0 
L -3.5 0 
" style="stroke: #000000; stroke-width: 0.8"/>
      </defs>
      <g>
       <use xlink:href="#m93e3b05476" x="90" y="294.201372" style="stroke: #000000; stroke-width: 0.8"/>
      </g>
     </g>
     <g id="text_7">
      <!-- −12.2 -->
      <g transform="translate(40.096562 299.520278) scale(0.14 -0.14)">
       <defs>
        <path id="DejaVuSans-2212" d="M 678 2272 
L 4684 2272 
L 4684 1741 
L 678 1741 
L 678 2272 
z
" transform="scale(0.015625)"/>
        <path id="DejaVuSans-2e" d="M 684 794 
L 1344 794 
L 1344 0 
L 684 0 
L 684 794 
z
" transform="scale(0.015625)"/>
       </defs>
       <use xlink:href="#DejaVuSans-2212"/>
       <use xlink:href="#DejaVuSans-31" x="83.789062"/>
       <use xlink:href="#DejaVuSans-32" x="147.412109"/>
       <use xlink:href="#DejaVuSans-2e" x="211.035156"/>
       <use xlink:href="#DejaVuSans-32" x="242.822266"/>
      </g>
     </g>
    </g>
    <g id="ytick_2">
     <g id="line2d_7">
      <g>
       <use xlink:href="#m93e3b05476" x="90" y="242.99247" style="stroke: #000000; stroke-width: 0.8"/>
      </g>
     </g>
     <g id="text_8">
      <!-- −12.1 -->
      <g transform="translate(40.096562 248.311376) scale(0.14 -0.14)">
       <use xlink:href="#DejaVuSans-2212"/>
       <use xlink:href="#DejaVuSans-31" x="83.789062"/>
       <use xlink:href="#DejaVuSans-32" x="147.412109"/>
       <use xlink:href="#DejaVuSans-2e" x="211.035156"/>
       <use xlink:href="#DejaVuSans-31" x="242.822266"/>
      </g>
     </g>
    </g>
    <g id="ytick_3">
     <g id="line2d_8">
      <g>
       <use xlink:href="#m93e3b05476" x="90" y="191.783568" style="stroke: #000000; stroke-width: 0.8"/>
      </g>
     </g>
     <g id="text_9">
      <!-- −12.0 -->
      <g transform="translate(40.096562 197.102474) scale(0.14 -0.14)">
       <use xlink:href="#DejaVuSans-2212"/>
       <use xlink:href="#DejaVuSans-31" x="83.789062"/>
       <use xlink:href="#DejaVuSans-32" x="147.412109"/>
       <use xlink:href="#DejaVuSans-2e" x="211.035156"/>
       <use xlink:href="#DejaVuSans-30" x="242.822266"/>
      </g>
     </g>
    </g>
    <g id="ytick_4">
     <g id="line2d_9">
      <g>
       <use xlink:href="#m93e3b05476" x="90" y="140.574666" style="stroke: #000000; stroke-width: 0.8"/>
      </g>
     </g>
     <g id="text_10">
      <!-- −11.9 -->
      <g transform="translate(40.096562 145.893572) scale(0.14 -0.14)">
       <defs>
        <path id="DejaVuSans-39" d="M 703 97 
L 703 672 
Q 941 559 1184 500 
Q 1428 441 1663 441 
Q 2288 441 2617 861 
Q 2947 1281 2994 2138 
Q 2813 1869 2534 1725 
Q 2256 1581 1919 1581 
Q 1219 1581 811 2004 
Q 403 2428 403 3163 
Q 403 3881 828 4315 
Q 1253 4750 1959 4750 
Q 2769 4750 3195 4129 
Q 3622 3509 3622 2328 
Q 3622 1225 3098 567 
Q 2575 -91 1691 -91 
Q 1453 -91 1209 -44 
Q 966 3 703 97 
z
M 1959 2075 
Q 2384 2075 2632 2365 
Q 2881 2656 2881 3163 
Q 2881 3666 2632 3958 
Q 2384 4250 1959 4250 
Q 1534 4250 1286 3958 
Q 1038 3666 1038 3163 
Q 1038 2656 1286 2365 
Q 1534 2075 1959 2075 
z
" transform="scale(0.015625)"/>
       </defs>
       <use xlink:href="#DejaVuSans-2212"/>
       <use xlink:href="#DejaVuSans-31" x="83.789062"/>
       <use xlink:href="#DejaVuSans-31" x="147.412109"/>
       <use xlink:href="#DejaVuSans-2e" x="211.035156"/>
       <use xlink:href="#DejaVuSans-39" x="242.822266"/>
      </g>
     </g>
    </g>
    <g id="ytick_5">
     <g id="line2d_10">
      <g>
       <use xlink:href="#m93e3b05476" x="90" y="89.365764" style="stroke: #000000; stroke-width: 0.8"/>
      </g>
     </g>
     <g id="text_11">
      <!-- −11.8 -->
      <g transform="translate(40.096562 94.68467) scale(0.14 -0.14)">
       <defs>
        <path id="DejaVuSans-38" d="M 2034 2216 
Q 1584 2216 1326 1975 
Q 1069 1734 1069 1313 
Q 1069 891 1326 650 
Q 1584 409 2034 409 
Q 2484 409 2743 651 
Q 3003 894 3003 1313 
Q 3003 1734 2745 1975 
Q 2488 2216 2034 2216 
z
M 1403 2484 
Q 997 2584 770 2862 
Q 544 3141 544 3541 
Q 544 4100 942 4425 
Q 1341 4750 2034 4750 
Q 2731 4750 3128 4425 
Q 3525 4100 3525 3541 
Q 3525 3141 3298 2862 
Q 3072 2584 2669 2484 
Q 3125 2378 3379 2068 
Q 3634 1759 3634 1313 
Q 3634 634 3220 271 
Q 2806 -91 2034 -91 
Q 1263 -91 848 271 
Q 434 634 434 1313 
Q 434 1759 690 2068 
Q 947 2378 1403 2484 
z
M 1172 3481 
Q 1172 3119 1398 2916 
Q 1625 2713 2034 2713 
Q 2441 2713 2670 2916 
Q 2900 3119 2900 3481 
Q 2900 3844 2670 4047 
Q 2441 4250 2034 4250 
Q 1625 4250 1398 4047 
Q 1172 3844 1172 3481 
z
" transform="scale(0.015625)"/>
       </defs>
       <use xlink:href="#DejaVuSans-2212"/>
       <use xlink:href="#DejaVuSans-31" x="83.789062"/>
       <use xlink:href="#DejaVuSans-31" x="147.412109"/>
       <use xlink:href="#DejaVuSans-2e" x="211.035156"/>
       <use xlink:href="#DejaVuSans-38" x="242.822266"/>
      </g>
     </g>
    </g>
    <g id="text_12">
     <!-- exchange correlation / $E_h$ -->
     <g transform="translate(32.736562 276.12) rotate(-90) scale(0.16 -0.16)">
      <defs>
       <path id="DejaVuSans-78" d="M 3513 3500 
L 2247 1797 
L 3578 0 
L 2900 0 
L 1881 1375 
L 863 0 
L 184 0 
L 1544 1831 
L 300 3500 
L 978 3500 
L 1906 2253 
L 2834 3500 
L 3513 3500 
z
" transform="scale(0.015625)"/>
       <path id="DejaVuSans-63" d="M 3122 3366 
L 3122 2828 
Q 2878 2963 2633 3030 
Q 2388 3097 2138 3097 
Q 1578 3097 1268 2742 
Q 959 2388 959 1747 
Q 959 1106 1268 751 
Q 1578 397 2138 397 
Q 2388 397 2633 464 
Q 2878 531 3122 666 
L 3122 134 
Q 2881 22 2623 -34 
Q 2366 -91 2075 -91 
Q 1284 -91 818 406 
Q 353 903 353 1747 
Q 353 2603 823 3093 
Q 1294 3584 2113 3584 
Q 2378 3584 2631 3529 
Q 2884 3475 3122 3366 
z
" transform="scale(0.015625)"/>
       <path id="DejaVuSans-68" d="M 3513 2113 
L 3513 0 
L 2938 0 
L 2938 2094 
Q 2938 2591 2744 2837 
Q 2550 3084 2163 3084 
Q 1697 3084 1428 2787 
Q 1159 2491 1159 1978 
L 1159 0 
L 581 0 
L 581 4863 
L 1159 4863 
L 1159 2956 
Q 1366 3272 1645 3428 
Q 1925 3584 2291 3584 
Q 2894 3584 3203 3211 
Q 3513 2838 3513 2113 
z
" transform="scale(0.015625)"/>
       <path id="DejaVuSans-Oblique-45" d="M 1081 4666 
L 4031 4666 
L 3928 4134 
L 1606 4134 
L 1338 2753 
L 3566 2753 
L 3463 2222 
L 1234 2222 
L 909 531 
L 3284 531 
L 3181 0 
L 172 0 
L 1081 4666 
z
" transform="scale(0.015625)"/>
       <path id="DejaVuSans-Oblique-68" d="M 3566 2113 
L 3156 0 
L 2578 0 
L 2988 2091 
Q 3016 2238 3031 2350 
Q 3047 2463 3047 2528 
Q 3047 2791 2881 2937 
Q 2716 3084 2419 3084 
Q 1956 3084 1617 2771 
Q 1278 2459 1178 1941 
L 800 0 
L 225 0 
L 1172 4863 
L 1747 4863 
L 1375 2950 
Q 1594 3244 1934 3414 
Q 2275 3584 2650 3584 
Q 3113 3584 3367 3334 
Q 3622 3084 3622 2631 
Q 3622 2519 3608 2391 
Q 3594 2263 3566 2113 
z
" transform="scale(0.015625)"/>
      </defs>
      <use xlink:href="#DejaVuSans-65" transform="translate(0 0.015625)"/>
      <use xlink:href="#DejaVuSans-78" transform="translate(61.523438 0.015625)"/>
      <use xlink:href="#DejaVuSans-63" transform="translate(120.703125 0.015625)"/>
      <use xlink:href="#DejaVuSans-68" transform="translate(175.683594 0.015625)"/>
      <use xlink:href="#DejaVuSans-61" transform="translate(239.0625 0.015625)"/>
      <use xlink:href="#DejaVuSans-6e" transform="translate(300.341797 0.015625)"/>
      <use xlink:href="#DejaVuSans-67" transform="translate(363.720703 0.015625)"/>
      <use xlink:href="#DejaVuSans-65" transform="translate(427.197266 0.015625)"/>
      <use xlink:href="#DejaVuSans-20" transform="translate(488.720703 0.015625)"/>
      <use xlink:href="#DejaVuSans-63" transform="translate(520.507812 0.015625)"/>
      <use xlink:href="#DejaVuSans-6f" transform="translate(575.488281 0.015625)"/>
      <use xlink:href="#DejaVuSans-72" transform="translate(636.669922 0.015625)"/>
      <use xlink:href="#DejaVuSans-72" transform="translate(677.783203 0.015625)"/>
      <use xlink:href="#DejaVuSans-65" transform="translate(718.896484 0.015625)"/>
      <use xlink:href="#DejaVuSans-6c" transform="translate(780.419922 0.015625)"/>
      <use xlink:href="#DejaVuSans-61" transform="translate(808.203125 0.015625)"/>
      <use xlink:href="#DejaVuSans-74" transform="translate(869.482422 0.015625)"/>
      <use xlink:href="#DejaVuSans-69" transform="translate(908.691406 0.015625)"/>
      <use xlink:href="#DejaVuSans-6f" transform="translate(936.474609 0.015625)"/>
      <use xlink:href="#DejaVuSans-6e" transform="translate(997.65625 0.015625)"/>
      <use xlink:href="#DejaVuSans-20" transform="translate(1061.035156 0.015625)"/>
      <use xlink:href="#DejaVuSans-2f" transform="translate(1092.822266 0.015625)"/>
      <use xlink:href="#DejaVuSans-20" transform="translate(1126.513672 0.015625)"/>
      <use xlink:href="#DejaVuSans-Oblique-45" transform="translate(1158.300781 0.015625)"/>
      <use xlink:href="#DejaVuSans-Oblique-68" transform="translate(1221.484375 -16.390625) scale(0.7)"/>
     </g>
    </g>
   </g>
   <g id="line2d_11">
    <path d="M 101.574279 71.271539 
L 120.864745 63.198573 
L 140.155211 63.247989 
L 159.445676 64.063617 
L 178.736142 65.733068 
L 198.026608 67.640683 
L 217.317073 68.607271 
L 236.607539 68.566672 
L 255.898004 68.486971 
L 275.18847 68.40756 
L 294.478936 68.065343 
L 313.769401 67.69831 
L 333.059867 67.560313 
" clip-path="url(#p4ae83557ed)" style="fill: none; stroke: #1f77b4; stroke-opacity: 0.5; stroke-width: 2; stroke-linecap: square"/>
   </g>
   <g id="line2d_12">
    <path d="M 101.574279 286.91793 
L 120.864745 274.07789 
L 140.155211 270.62674 
L 159.445676 268.144232 
L 178.736142 266.343948 
L 198.026608 264.979544 
L 217.317073 263.891555 
L 236.607539 262.978358 
L 255.898004 262.198962 
L 275.18847 261.545884 
L 294.478936 261.042577 
L 313.769401 260.725475 
L 333.059867 260.61268 
" clip-path="url(#p4ae83557ed)" style="fill: none; stroke-dasharray: 5.55,2.4; stroke-dashoffset: 0; stroke: #1f77b4; stroke-width: 1.5"/>
   </g>
   <g id="line2d_13">
    <path d="M 101.574279 64.187941 
L 120.864745 71.249377 
L 140.155211 71.053798 
L 159.445676 71.035259 
L 178.736142 71.785546 
L 198.026608 72.923768 
L 217.317073 73.130941 
L 236.607539 72.066481 
L 255.898004 70.857494 
L 275.18847 69.880733 
L 294.478936 68.810383 
L 313.769401 67.818456 
L 333.059867 67.557937 
" clip-path="url(#p4ae83557ed)" style="fill: none; stroke: #ff7f0e; stroke-opacity: 0.5; stroke-width: 2; stroke-linecap: square"/>
   </g>
   <g id="line2d_14">
    <path d="M 101.574279 278.686004 
L 120.864745 284.705842 
L 140.155211 283.290002 
L 159.445676 282.507946 
L 178.736142 282.001798 
L 198.026608 281.488168 
L 217.317073 280.839645 
L 236.607539 280.032989 
L 255.898004 279.115587 
L 275.18847 278.15636 
L 294.478936 277.193983 
L 313.769401 276.239185 
L 333.059867 275.961657 
" clip-path="url(#p4ae83557ed)" style="fill: none; stroke-dasharray: 5.55,2.4; stroke-dashoffset: 0; stroke: #ff7f0e; stroke-width: 1.5"/>
   </g>
   <g id="line2d_15">
    <path d="M 101.574279 57.103163 
L 120.864745 55.145455 
L 140.155211 55.437873 
L 159.445676 57.086312 
L 178.736142 59.67485 
L 198.026608 62.35387 
L 217.317073 64.08241 
L 236.607539 65.065251 
L 255.898004 66.112756 
L 275.18847 66.931703 
L 294.478936 67.319453 
L 313.769401 67.575543 
L 333.059867 67.558247 
" clip-path="url(#p4ae83557ed)" style="fill: none; stroke: #2ca02c; stroke-opacity: 0.5; stroke-width: 2; stroke-linecap: square"/>
   </g>
   <g id="line2d_16">
    <path d="M 101.574279 294.054545 
L 120.864745 289.436 
L 140.155211 286.264119 
L 159.445676 283.974534 
L 178.736142 282.212224 
L 198.026608 280.819638 
L 217.317073 279.730074 
L 236.607539 278.885937 
L 255.898004 278.258679 
L 275.18847 277.842002 
L 294.478936 277.70451 
L 313.769401 277.951745 
L 333.059867 277.976244 
" clip-path="url(#p4ae83557ed)" style="fill: none; stroke-dasharray: 5.55,2.4; stroke-dashoffset: 0; stroke: #2ca02c; stroke-width: 1.5"/>
   </g>
   <g id="patch_3">
    <path d="M 90 306 
L 90 43.2 
" style="fill: none; stroke: #000000; stroke-width: 0.8; stroke-linejoin: miter; stroke-linecap: square"/>
   </g>
   <g id="patch_4">
    <path d="M 344.634146 306 
L 344.634146 43.2 
" style="fill: none; stroke: #000000; stroke-width: 0.8; stroke-linejoin: miter; stroke-linecap: square"/>
   </g>
   <g id="patch_5">
    <path d="M 90 306 
L 344.634146 306 
" style="fill: none; stroke: #000000; stroke-width: 0.8; stroke-linejoin: miter; stroke-linecap: square"/>
   </g>
   <g id="patch_6">
    <path d="M 90 43.2 
L 344.634146 43.2 
" style="fill: none; stroke: #000000; stroke-width: 0.8; stroke-linejoin: miter; stroke-linecap: square"/>
   </g>
   <g id="legend_1">
    <g id="patch_7">
     <path d="M 272.334146 206.097656 
L 337.634146 206.097656 
Q 339.634146 206.097656 339.634146 204.097656 
L 339.634146 145.102344 
Q 339.634146 143.102344 337.634146 143.102344 
L 272.334146 143.102344 
Q 270.334146 143.102344 270.334146 145.102344 
L 270.334146 204.097656 
Q 270.334146 206.097656 272.334146 206.097656 
z
" style="fill: #ffffff; opacity: 0.8; stroke: #cccccc; stroke-linejoin: miter"/>
    </g>
    <g id="text_13">
     <!-- $\mathbf{(c)}$ diagonal -->
     <g transform="translate(274.334146 154.702344) scale(0.1 -0.1)">
      <defs>
       <path id="DejaVuSans-Bold-28" d="M 2413 -844 
L 1484 -844 
Q 1006 -72 778 623 
Q 550 1319 550 2003 
Q 550 2688 779 3389 
Q 1009 4091 1484 4856 
L 2413 4856 
Q 2013 4116 1813 3408 
Q 1613 2700 1613 2009 
Q 1613 1319 1811 609 
Q 2009 -100 2413 -844 
z
" transform="scale(0.015625)"/>
       <path id="DejaVuSans-Bold-63" d="M 3366 3391 
L 3366 2478 
Q 3138 2634 2908 2709 
Q 2678 2784 2431 2784 
Q 1963 2784 1702 2511 
Q 1441 2238 1441 1747 
Q 1441 1256 1702 982 
Q 1963 709 2431 709 
Q 2694 709 2930 787 
Q 3166 866 3366 1019 
L 3366 103 
Q 3103 6 2833 -42 
Q 2563 -91 2291 -91 
Q 1344 -91 809 395 
Q 275 881 275 1747 
Q 275 2613 809 3098 
Q 1344 3584 2291 3584 
Q 2566 3584 2833 3536 
Q 3100 3488 3366 3391 
z
" transform="scale(0.015625)"/>
       <path id="DejaVuSans-Bold-29" d="M 513 -844 
Q 913 -100 1113 609 
Q 1313 1319 1313 2009 
Q 1313 2700 1113 3408 
Q 913 4116 513 4856 
L 1441 4856 
Q 1916 4091 2145 3389 
Q 2375 2688 2375 2003 
Q 2375 1319 2147 623 
Q 1919 -72 1441 -844 
L 513 -844 
z
" transform="scale(0.015625)"/>
      </defs>
      <use xlink:href="#DejaVuSans-Bold-28" transform="translate(0 0.015625)"/>
      <use xlink:href="#DejaVuSans-Bold-63" transform="translate(45.703125 0.015625)"/>
      <use xlink:href="#DejaVuSans-Bold-29" transform="translate(104.980469 0.015625)"/>
      <use xlink:href="#DejaVuSans-20" transform="translate(150.683594 0.015625)"/>
      <use xlink:href="#DejaVuSans-64" transform="translate(182.470703 0.015625)"/>
      <use xlink:href="#DejaVuSans-69" transform="translate(245.947266 0.015625)"/>
      <use xlink:href="#DejaVuSans-61" transform="translate(273.730469 0.015625)"/>
      <use xlink:href="#DejaVuSans-67" transform="translate(335.009766 0.015625)"/>
      <use xlink:href="#DejaVuSans-6f" transform="translate(398.486328 0.015625)"/>
      <use xlink:href="#DejaVuSans-6e" transform="translate(459.667969 0.015625)"/>
      <use xlink:href="#DejaVuSans-61" transform="translate(523.046875 0.015625)"/>
      <use xlink:href="#DejaVuSans-6c" transform="translate(584.326172 0.015625)"/>
     </g>
    </g>
    <g id="line2d_17">
     <path d="M 277.634146 165.900781 
L 287.634146 165.900781 
L 297.634146 165.900781 
" style="fill: none; stroke: #1f77b4; stroke-opacity: 0.5; stroke-width: 2; stroke-linecap: square"/>
    </g>
    <g id="text_14">
     <!-- XC$_{0,0}$ -->
     <g transform="translate(305.634146 169.400781) scale(0.1 -0.1)">
      <defs>
       <path id="DejaVuSans-58" d="M 403 4666 
L 1081 4666 
L 2241 2931 
L 3406 4666 
L 4084 4666 
L 2584 2425 
L 4184 0 
L 3506 0 
L 2194 1984 
L 872 0 
L 191 0 
L 1856 2491 
L 403 4666 
z
" transform="scale(0.015625)"/>
       <path id="DejaVuSans-43" d="M 4122 4306 
L 4122 3641 
Q 3803 3938 3442 4084 
Q 3081 4231 2675 4231 
Q 1875 4231 1450 3742 
Q 1025 3253 1025 2328 
Q 1025 1406 1450 917 
Q 1875 428 2675 428 
Q 3081 428 3442 575 
Q 3803 722 4122 1019 
L 4122 359 
Q 3791 134 3420 21 
Q 3050 -91 2638 -91 
Q 1578 -91 968 557 
Q 359 1206 359 2328 
Q 359 3453 968 4101 
Q 1578 4750 2638 4750 
Q 3056 4750 3426 4639 
Q 3797 4528 4122 4306 
z
" transform="scale(0.015625)"/>
       <path id="DejaVuSans-2c" d="M 750 794 
L 1409 794 
L 1409 256 
L 897 -744 
L 494 -744 
L 750 256 
L 750 794 
z
" transform="scale(0.015625)"/>
      </defs>
      <use xlink:href="#DejaVuSans-58" transform="translate(0 0.78125)"/>
      <use xlink:href="#DejaVuSans-43" transform="translate(68.505859 0.78125)"/>
      <use xlink:href="#DejaVuSans-30" transform="translate(139.287109 -15.625) scale(0.7)"/>
      <use xlink:href="#DejaVuSans-2c" transform="translate(183.823242 -15.625) scale(0.7)"/>
      <use xlink:href="#DejaVuSans-30" transform="translate(219.711914 -15.625) scale(0.7)"/>
     </g>
    </g>
    <g id="line2d_18">
     <path d="M 277.634146 180.999219 
L 287.634146 180.999219 
L 297.634146 180.999219 
" style="fill: none; stroke: #ff7f0e; stroke-opacity: 0.5; stroke-width: 2; stroke-linecap: square"/>
    </g>
    <g id="text_15">
     <!-- XC$_{1,1}$ -->
     <g transform="translate(305.634146 184.499219) scale(0.1 -0.1)">
      <use xlink:href="#DejaVuSans-58" transform="translate(0 0.78125)"/>
      <use xlink:href="#DejaVuSans-43" transform="translate(68.505859 0.78125)"/>
      <use xlink:href="#DejaVuSans-31" transform="translate(139.287109 -15.625) scale(0.7)"/>
      <use xlink:href="#DejaVuSans-2c" transform="translate(183.823242 -15.625) scale(0.7)"/>
      <use xlink:href="#DejaVuSans-31" transform="translate(219.711914 -15.625) scale(0.7)"/>
     </g>
    </g>
    <g id="line2d_19">
     <path d="M 277.634146 196.097656 
L 287.634146 196.097656 
L 297.634146 196.097656 
" style="fill: none; stroke: #2ca02c; stroke-opacity: 0.5; stroke-width: 2; stroke-linecap: square"/>
    </g>
    <g id="text_16">
     <!-- XC$_{2,2}$ -->
     <g transform="translate(305.634146 199.597656) scale(0.1 -0.1)">
      <use xlink:href="#DejaVuSans-58" transform="translate(0 0.78125)"/>
      <use xlink:href="#DejaVuSans-43" transform="translate(68.505859 0.78125)"/>
      <use xlink:href="#DejaVuSans-32" transform="translate(139.287109 -15.625) scale(0.7)"/>
      <use xlink:href="#DejaVuSans-2c" transform="translate(183.823242 -15.625) scale(0.7)"/>
      <use xlink:href="#DejaVuSans-32" transform="translate(219.711914 -15.625) scale(0.7)"/>
     </g>
    </g>
   </g>
  </g>
  <g id="axes_2">
   <g id="patch_8">
    <path d="M 357.365854 306 
L 612 306 
L 612 43.2 
L 357.365854 43.2 
z
" style="fill: #ffffff"/>
   </g>
   <g id="matplotlib.axis_3">
    <g id="xtick_6">
     <g id="line2d_20">
      <g>
       <use xlink:href="#m3a7d1ac500" x="397.875831" y="306" style="stroke: #000000; stroke-width: 0.8"/>
      </g>
     </g>
     <g id="text_17">
      <!-- 75 -->
      <g transform="translate(388.968331 323.637812) scale(0.14 -0.14)">
       <use xlink:href="#DejaVuSans-37"/>
       <use xlink:href="#DejaVuSans-35" x="63.623047"/>
      </g>
     </g>
    </g>
    <g id="xtick_7">
     <g id="line2d_21">
      <g>
       <use xlink:href="#m3a7d1ac500" x="446.101996" y="306" style="stroke: #000000; stroke-width: 0.8"/>
      </g>
     </g>
     <g id="text_18">
      <!-- 100 -->
      <g transform="translate(432.740746 323.637812) scale(0.14 -0.14)">
       <use xlink:href="#DejaVuSans-31"/>
       <use xlink:href="#DejaVuSans-30" x="63.623047"/>
       <use xlink:href="#DejaVuSans-30" x="127.246094"/>
      </g>
     </g>
    </g>
    <g id="xtick_8">
     <g id="line2d_22">
      <g>
       <use xlink:href="#m3a7d1ac500" x="494.32816" y="306" style="stroke: #000000; stroke-width: 0.8"/>
      </g>
     </g>
     <g id="text_19">
      <!-- 125 -->
      <g transform="translate(480.96691 323.637812) scale(0.14 -0.14)">
       <use xlink:href="#DejaVuSans-31"/>
       <use xlink:href="#DejaVuSans-32" x="63.623047"/>
       <use xlink:href="#DejaVuSans-35" x="127.246094"/>
      </g>
     </g>
    </g>
    <g id="xtick_9">
     <g id="line2d_23">
      <g>
       <use xlink:href="#m3a7d1ac500" x="542.554324" y="306" style="stroke: #000000; stroke-width: 0.8"/>
      </g>
     </g>
     <g id="text_20">
      <!-- 150 -->
      <g transform="translate(529.193074 323.637812) scale(0.14 -0.14)">
       <use xlink:href="#DejaVuSans-31"/>
       <use xlink:href="#DejaVuSans-35" x="63.623047"/>
       <use xlink:href="#DejaVuSans-30" x="127.246094"/>
      </g>
     </g>
    </g>
    <g id="xtick_10">
     <g id="line2d_24">
      <g>
       <use xlink:href="#m3a7d1ac500" x="590.780488" y="306" style="stroke: #000000; stroke-width: 0.8"/>
      </g>
     </g>
     <g id="text_21">
      <!-- 175 -->
      <g transform="translate(577.419238 323.637812) scale(0.14 -0.14)">
       <use xlink:href="#DejaVuSans-31"/>
       <use xlink:href="#DejaVuSans-37" x="63.623047"/>
       <use xlink:href="#DejaVuSans-35" x="127.246094"/>
      </g>
     </g>
    </g>
    <g id="text_22">
     <!-- pyramidalization angle / $^{\circ}$ -->
     <g transform="translate(381.482927 342.709375) scale(0.16 -0.16)">
      <use xlink:href="#DejaVuSans-70" transform="translate(0 0.015625)"/>
      <use xlink:href="#DejaVuSans-79" transform="translate(63.476562 0.015625)"/>
      <use xlink:href="#DejaVuSans-72" transform="translate(122.65625 0.015625)"/>
      <use xlink:href="#DejaVuSans-61" transform="translate(163.769531 0.015625)"/>
      <use xlink:href="#DejaVuSans-6d" transform="translate(225.048828 0.015625)"/>
      <use xlink:href="#DejaVuSans-69" transform="translate(322.460938 0.015625)"/>
      <use xlink:href="#DejaVuSans-64" transform="translate(350.244141 0.015625)"/>
      <use xlink:href="#DejaVuSans-61" transform="translate(413.720703 0.015625)"/>
      <use xlink:href="#DejaVuSans-6c" transform="translate(475 0.015625)"/>
      <use xlink:href="#DejaVuSans-69" transform="translate(502.783203 0.015625)"/>
      <use xlink:href="#DejaVuSans-7a" transform="translate(530.566406 0.015625)"/>
      <use xlink:href="#DejaVuSans-61" transform="translate(583.056641 0.015625)"/>
      <use xlink:href="#DejaVuSans-74" transform="translate(644.335938 0.015625)"/>
      <use xlink:href="#DejaVuSans-69" transform="translate(683.544922 0.015625)"/>
      <use xlink:href="#DejaVuSans-6f" transform="translate(711.328125 0.015625)"/>
      <use xlink:href="#DejaVuSans-6e" transform="translate(772.509766 0.015625)"/>
      <use xlink:href="#DejaVuSans-20" transform="translate(835.888672 0.015625)"/>
      <use xlink:href="#DejaVuSans-61" transform="translate(867.675781 0.015625)"/>
      <use xlink:href="#DejaVuSans-6e" transform="translate(928.955078 0.015625)"/>
      <use xlink:href="#DejaVuSans-67" transform="translate(992.333984 0.015625)"/>
      <use xlink:href="#DejaVuSans-6c" transform="translate(1055.810547 0.015625)"/>
      <use xlink:href="#DejaVuSans-65" transform="translate(1083.59375 0.015625)"/>
      <use xlink:href="#DejaVuSans-20" transform="translate(1145.117188 0.015625)"/>
      <use xlink:href="#DejaVuSans-2f" transform="translate(1176.904297 0.015625)"/>
      <use xlink:href="#DejaVuSans-20" transform="translate(1210.595703 0.015625)"/>
      <use xlink:href="#DejaVuSans-2218" transform="translate(1243.339844 38.296875) scale(0.7)"/>
     </g>
    </g>
   </g>
   <g id="matplotlib.axis_4">
    <g id="ytick_6">
     <g id="line2d_25">
      <defs>
       <path id="m9684d8e565" d="M 0 0 
L 3.5 0 
" style="stroke: #000000; stroke-width: 0.8"/>
      </defs>
      <g>
       <use xlink:href="#m9684d8e565" x="612" y="280.314123" style="stroke: #000000; stroke-width: 0.8"/>
      </g>
     </g>
     <g id="text_23">
      <!-- −0.0035 -->
      <g transform="translate(619 285.633029) scale(0.14 -0.14)">
       <defs>
        <path id="DejaVuSans-33" d="M 2597 2516 
Q 3050 2419 3304 2112 
Q 3559 1806 3559 1356 
Q 3559 666 3084 287 
Q 2609 -91 1734 -91 
Q 1441 -91 1130 -33 
Q 819 25 488 141 
L 488 750 
Q 750 597 1062 519 
Q 1375 441 1716 441 
Q 2309 441 2620 675 
Q 2931 909 2931 1356 
Q 2931 1769 2642 2001 
Q 2353 2234 1838 2234 
L 1294 2234 
L 1294 2753 
L 1863 2753 
Q 2328 2753 2575 2939 
Q 2822 3125 2822 3475 
Q 2822 3834 2567 4026 
Q 2313 4219 1838 4219 
Q 1578 4219 1281 4162 
Q 984 4106 628 3988 
L 628 4550 
Q 988 4650 1302 4700 
Q 1616 4750 1894 4750 
Q 2613 4750 3031 4423 
Q 3450 4097 3450 3541 
Q 3450 3153 3228 2886 
Q 3006 2619 2597 2516 
z
" transform="scale(0.015625)"/>
       </defs>
       <use xlink:href="#DejaVuSans-2212"/>
       <use xlink:href="#DejaVuSans-30" x="83.789062"/>
       <use xlink:href="#DejaVuSans-2e" x="147.412109"/>
       <use xlink:href="#DejaVuSans-30" x="179.199219"/>
       <use xlink:href="#DejaVuSans-30" x="242.822266"/>
       <use xlink:href="#DejaVuSans-33" x="306.445312"/>
       <use xlink:href="#DejaVuSans-35" x="370.068359"/>
      </g>
     </g>
    </g>
    <g id="ytick_7">
     <g id="line2d_26">
      <g>
       <use xlink:href="#m9684d8e565" x="612" y="248.147361" style="stroke: #000000; stroke-width: 0.8"/>
      </g>
     </g>
     <g id="text_24">
      <!-- −0.0030 -->
      <g transform="translate(619 253.466267) scale(0.14 -0.14)">
       <use xlink:href="#DejaVuSans-2212"/>
       <use xlink:href="#DejaVuSans-30" x="83.789062"/>
       <use xlink:href="#DejaVuSans-2e" x="147.412109"/>
       <use xlink:href="#DejaVuSans-30" x="179.199219"/>
       <use xlink:href="#DejaVuSans-30" x="242.822266"/>
       <use xlink:href="#DejaVuSans-33" x="306.445312"/>
       <use xlink:href="#DejaVuSans-30" x="370.068359"/>
      </g>
     </g>
    </g>
    <g id="ytick_8">
     <g id="line2d_27">
      <g>
       <use xlink:href="#m9684d8e565" x="612" y="215.980598" style="stroke: #000000; stroke-width: 0.8"/>
      </g>
     </g>
     <g id="text_25">
      <!-- −0.0025 -->
      <g transform="translate(619 221.299505) scale(0.14 -0.14)">
       <use xlink:href="#DejaVuSans-2212"/>
       <use xlink:href="#DejaVuSans-30" x="83.789062"/>
       <use xlink:href="#DejaVuSans-2e" x="147.412109"/>
       <use xlink:href="#DejaVuSans-30" x="179.199219"/>
       <use xlink:href="#DejaVuSans-30" x="242.822266"/>
       <use xlink:href="#DejaVuSans-32" x="306.445312"/>
       <use xlink:href="#DejaVuSans-35" x="370.068359"/>
      </g>
     </g>
    </g>
    <g id="ytick_9">
     <g id="line2d_28">
      <g>
       <use xlink:href="#m9684d8e565" x="612" y="183.813836" style="stroke: #000000; stroke-width: 0.8"/>
      </g>
     </g>
     <g id="text_26">
      <!-- −0.0020 -->
      <g transform="translate(619 189.132742) scale(0.14 -0.14)">
       <use xlink:href="#DejaVuSans-2212"/>
       <use xlink:href="#DejaVuSans-30" x="83.789062"/>
       <use xlink:href="#DejaVuSans-2e" x="147.412109"/>
       <use xlink:href="#DejaVuSans-30" x="179.199219"/>
       <use xlink:href="#DejaVuSans-30" x="242.822266"/>
       <use xlink:href="#DejaVuSans-32" x="306.445312"/>
       <use xlink:href="#DejaVuSans-30" x="370.068359"/>
      </g>
     </g>
    </g>
    <g id="ytick_10">
     <g id="line2d_29">
      <g>
       <use xlink:href="#m9684d8e565" x="612" y="151.647074" style="stroke: #000000; stroke-width: 0.8"/>
      </g>
     </g>
     <g id="text_27">
      <!-- −0.0015 -->
      <g transform="translate(619 156.96598) scale(0.14 -0.14)">
       <use xlink:href="#DejaVuSans-2212"/>
       <use xlink:href="#DejaVuSans-30" x="83.789062"/>
       <use xlink:href="#DejaVuSans-2e" x="147.412109"/>
       <use xlink:href="#DejaVuSans-30" x="179.199219"/>
       <use xlink:href="#DejaVuSans-30" x="242.822266"/>
       <use xlink:href="#DejaVuSans-31" x="306.445312"/>
       <use xlink:href="#DejaVuSans-35" x="370.068359"/>
      </g>
     </g>
    </g>
    <g id="ytick_11">
     <g id="line2d_30">
      <g>
       <use xlink:href="#m9684d8e565" x="612" y="119.480312" style="stroke: #000000; stroke-width: 0.8"/>
      </g>
     </g>
     <g id="text_28">
      <!-- −0.0010 -->
      <g transform="translate(619 124.799218) scale(0.14 -0.14)">
       <use xlink:href="#DejaVuSans-2212"/>
       <use xlink:href="#DejaVuSans-30" x="83.789062"/>
       <use xlink:href="#DejaVuSans-2e" x="147.412109"/>
       <use xlink:href="#DejaVuSans-30" x="179.199219"/>
       <use xlink:href="#DejaVuSans-30" x="242.822266"/>
       <use xlink:href="#DejaVuSans-31" x="306.445312"/>
       <use xlink:href="#DejaVuSans-30" x="370.068359"/>
      </g>
     </g>
    </g>
    <g id="ytick_12">
     <g id="line2d_31">
      <g>
       <use xlink:href="#m9684d8e565" x="612" y="87.313549" style="stroke: #000000; stroke-width: 0.8"/>
      </g>
     </g>
     <g id="text_29">
      <!-- −0.0005 -->
      <g transform="translate(619 92.632456) scale(0.14 -0.14)">
       <use xlink:href="#DejaVuSans-2212"/>
       <use xlink:href="#DejaVuSans-30" x="83.789062"/>
       <use xlink:href="#DejaVuSans-2e" x="147.412109"/>
       <use xlink:href="#DejaVuSans-30" x="179.199219"/>
       <use xlink:href="#DejaVuSans-30" x="242.822266"/>
       <use xlink:href="#DejaVuSans-30" x="306.445312"/>
       <use xlink:href="#DejaVuSans-35" x="370.068359"/>
      </g>
     </g>
    </g>
    <g id="ytick_13">
     <g id="line2d_32">
      <g>
       <use xlink:href="#m9684d8e565" x="612" y="55.146787" style="stroke: #000000; stroke-width: 0.8"/>
      </g>
     </g>
     <g id="text_30">
      <!-- 0.0000 -->
      <g transform="translate(619 60.465693) scale(0.14 -0.14)">
       <use xlink:href="#DejaVuSans-30"/>
       <use xlink:href="#DejaVuSans-2e" x="63.623047"/>
       <use xlink:href="#DejaVuSans-30" x="95.410156"/>
       <use xlink:href="#DejaVuSans-30" x="159.033203"/>
       <use xlink:href="#DejaVuSans-30" x="222.65625"/>
       <use xlink:href="#DejaVuSans-30" x="286.279297"/>
      </g>
     </g>
    </g>
    <g id="text_31">
     <!-- exchange correlation / $E_h$ -->
     <g transform="translate(695.878438 276.12) rotate(-90) scale(0.16 -0.16)">
      <use xlink:href="#DejaVuSans-65" transform="translate(0 0.015625)"/>
      <use xlink:href="#DejaVuSans-78" transform="translate(61.523438 0.015625)"/>
      <use xlink:href="#DejaVuSans-63" transform="translate(120.703125 0.015625)"/>
      <use xlink:href="#DejaVuSans-68" transform="translate(175.683594 0.015625)"/>
      <use xlink:href="#DejaVuSans-61" transform="translate(239.0625 0.015625)"/>
      <use xlink:href="#DejaVuSans-6e" transform="translate(300.341797 0.015625)"/>
      <use xlink:href="#DejaVuSans-67" transform="translate(363.720703 0.015625)"/>
      <use xlink:href="#DejaVuSans-65" transform="translate(427.197266 0.015625)"/>
      <use xlink:href="#DejaVuSans-20" transform="translate(488.720703 0.015625)"/>
      <use xlink:href="#DejaVuSans-63" transform="translate(520.507812 0.015625)"/>
      <use xlink:href="#DejaVuSans-6f" transform="translate(575.488281 0.015625)"/>
      <use xlink:href="#DejaVuSans-72" transform="translate(636.669922 0.015625)"/>
      <use xlink:href="#DejaVuSans-72" transform="translate(677.783203 0.015625)"/>
      <use xlink:href="#DejaVuSans-65" transform="translate(718.896484 0.015625)"/>
      <use xlink:href="#DejaVuSans-6c" transform="translate(780.419922 0.015625)"/>
      <use xlink:href="#DejaVuSans-61" transform="translate(808.203125 0.015625)"/>
      <use xlink:href="#DejaVuSans-74" transform="translate(869.482422 0.015625)"/>
      <use xlink:href="#DejaVuSans-69" transform="translate(908.691406 0.015625)"/>
      <use xlink:href="#DejaVuSans-6f" transform="translate(936.474609 0.015625)"/>
      <use xlink:href="#DejaVuSans-6e" transform="translate(997.65625 0.015625)"/>
      <use xlink:href="#DejaVuSans-20" transform="translate(1061.035156 0.015625)"/>
      <use xlink:href="#DejaVuSans-2f" transform="translate(1092.822266 0.015625)"/>
      <use xlink:href="#DejaVuSans-20" transform="translate(1126.513672 0.015625)"/>
      <use xlink:href="#DejaVuSans-Oblique-45" transform="translate(1158.300781 0.015625)"/>
      <use xlink:href="#DejaVuSans-Oblique-68" transform="translate(1221.484375 -16.390625) scale(0.7)"/>
     </g>
    </g>
   </g>
   <g id="line2d_33">
    <path d="M 368.940133 55.146787 
L 388.230599 55.146787 
L 407.521064 55.146787 
L 426.81153 55.146787 
L 446.101996 55.146787 
L 465.392461 55.146787 
L 484.682927 55.146787 
L 503.973392 55.146787 
L 523.263858 55.146787 
L 542.554324 55.146787 
L 561.844789 55.146787 
L 581.135255 55.146787 
L 600.425721 55.146787 
" clip-path="url(#p4be48c50d8)" style="fill: none; stroke: #1f77b4; stroke-opacity: 0.5; stroke-width: 2; stroke-linecap: square"/>
   </g>
   <g id="line2d_34">
    <path d="M 368.940133 55.146787 
L 388.230599 55.146787 
L 407.521064 55.146787 
L 426.81153 55.146787 
L 446.101996 55.146787 
L 465.392461 55.146787 
L 484.682927 55.146787 
L 503.973392 55.146787 
L 523.263858 55.146787 
L 542.554324 55.146787 
L 561.844789 55.146787 
L 581.135255 55.146787 
L 600.425721 55.146779 
" clip-path="url(#p4be48c50d8)" style="fill: none; stroke-dasharray: 5.55,2.4; stroke-dashoffset: 0; stroke: #1f77b4; stroke-width: 1.5"/>
   </g>
   <g id="line2d_35">
    <path d="M 368.940133 128.719245 
L 388.230599 55.146787 
L 407.521064 55.146787 
L 426.81153 55.146787 
L 446.101996 55.146787 
L 465.392461 55.146787 
L 484.682927 55.146787 
L 503.973392 55.146787 
L 523.263858 55.146787 
L 542.554324 55.146787 
L 561.844789 55.146787 
L 581.135255 55.146787 
L 600.425721 55.146348 
" clip-path="url(#p4be48c50d8)" style="fill: none; stroke: #ff7f0e; stroke-opacity: 0.5; stroke-width: 2; stroke-linecap: square"/>
   </g>
   <g id="line2d_36">
    <path d="M 368.940133 294.054545 
L 388.230599 55.146787 
L 407.521064 55.146787 
L 426.81153 55.146787 
L 446.101996 55.146787 
L 465.392461 55.146787 
L 484.682927 55.146787 
L 503.973392 55.146787 
L 523.263858 55.146787 
L 542.554324 55.146787 
L 561.844789 55.146787 
L 581.135255 55.146787 
L 600.425721 55.153918 
" clip-path="url(#p4be48c50d8)" style="fill: none; stroke-dasharray: 5.55,2.4; stroke-dashoffset: 0; stroke: #ff7f0e; stroke-width: 1.5"/>
   </g>
   <g id="line2d_37">
    <path d="M 368.940133 55.146787 
L 388.230599 130.117943 
L 407.521064 122.451971 
L 426.81153 113.174949 
L 446.101996 106.453655 
L 465.392461 103.588777 
L 484.682927 103.01009 
L 503.973392 101.266434 
L 523.263858 98.131554 
L 542.554324 97.669141 
L 561.844789 99.410626 
L 581.135255 82.409896 
L 600.425721 55.15824 
" clip-path="url(#p4be48c50d8)" style="fill: none; stroke: #2ca02c; stroke-opacity: 0.5; stroke-width: 2; stroke-linecap: square"/>
   </g>
   <g id="line2d_38">
    <path d="M 368.940133 55.146787 
L 388.230599 280.712641 
L 407.521064 262.708601 
L 426.81153 245.677941 
L 446.101996 232.029126 
L 465.392461 221.80675 
L 484.682927 214.098966 
L 503.973392 207.940892 
L 523.263858 202.453144 
L 542.554324 196.326121 
L 561.844789 183.295093 
L 581.135255 123.611721 
L 600.425721 55.145455 
" clip-path="url(#p4be48c50d8)" style="fill: none; stroke-dasharray: 5.55,2.4; stroke-dashoffset: 0; stroke: #2ca02c; stroke-width: 1.5"/>
   </g>
   <g id="patch_9">
    <path d="M 357.365854 306 
L 357.365854 43.2 
" style="fill: none; stroke: #000000; stroke-width: 0.8; stroke-linejoin: miter; stroke-linecap: square"/>
   </g>
   <g id="patch_10">
    <path d="M 612 306 
L 612 43.2 
" style="fill: none; stroke: #000000; stroke-width: 0.8; stroke-linejoin: miter; stroke-linecap: square"/>
   </g>
   <g id="patch_11">
    <path d="M 357.365854 306 
L 612 306 
" style="fill: none; stroke: #000000; stroke-width: 0.8; stroke-linejoin: miter; stroke-linecap: square"/>
   </g>
   <g id="patch_12">
    <path d="M 357.365854 43.2 
L 612 43.2 
" style="fill: none; stroke: #000000; stroke-width: 0.8; stroke-linejoin: miter; stroke-linecap: square"/>
   </g>
   <g id="legend_2">
    <g id="patch_13">
     <path d="M 521.7 301 
L 605 301 
Q 607 301 607 299 
L 607 240.004687 
Q 607 238.004687 605 238.004687 
L 521.7 238.004687 
Q 519.7 238.004687 519.7 240.004687 
L 519.7 299 
Q 519.7 301 521.7 301 
z
" style="fill: #ffffff; opacity: 0.8; stroke: #cccccc; stroke-linejoin: miter"/>
    </g>
    <g id="text_32">
     <!-- $\mathbf{(d)}$ off-diagonal -->
     <g transform="translate(523.7 249.604687) scale(0.1 -0.1)">
      <defs>
       <path id="DejaVuSans-Bold-64" d="M 2919 2988 
L 2919 4863 
L 4044 4863 
L 4044 0 
L 2919 0 
L 2919 506 
Q 2688 197 2409 53 
Q 2131 -91 1766 -91 
Q 1119 -91 703 423 
Q 288 938 288 1747 
Q 288 2556 703 3070 
Q 1119 3584 1766 3584 
Q 2128 3584 2408 3439 
Q 2688 3294 2919 2988 
z
M 2181 722 
Q 2541 722 2730 984 
Q 2919 1247 2919 1747 
Q 2919 2247 2730 2509 
Q 2541 2772 2181 2772 
Q 1825 2772 1636 2509 
Q 1447 2247 1447 1747 
Q 1447 1247 1636 984 
Q 1825 722 2181 722 
z
" transform="scale(0.015625)"/>
       <path id="DejaVuSans-66" d="M 2375 4863 
L 2375 4384 
L 1825 4384 
Q 1516 4384 1395 4259 
Q 1275 4134 1275 3809 
L 1275 3500 
L 2222 3500 
L 2222 3053 
L 1275 3053 
L 1275 0 
L 697 0 
L 697 3053 
L 147 3053 
L 147 3500 
L 697 3500 
L 697 3744 
Q 697 4328 969 4595 
Q 1241 4863 1831 4863 
L 2375 4863 
z
" transform="scale(0.015625)"/>
       <path id="DejaVuSans-2d" d="M 313 2009 
L 1997 2009 
L 1997 1497 
L 313 1497 
L 313 2009 
z
" transform="scale(0.015625)"/>
      </defs>
      <use xlink:href="#DejaVuSans-Bold-28" transform="translate(0 0.015625)"/>
      <use xlink:href="#DejaVuSans-Bold-64" transform="translate(45.703125 0.015625)"/>
      <use xlink:href="#DejaVuSans-Bold-29" transform="translate(117.285156 0.015625)"/>
      <use xlink:href="#DejaVuSans-20" transform="translate(162.988281 0.015625)"/>
      <use xlink:href="#DejaVuSans-6f" transform="translate(194.775391 0.015625)"/>
      <use xlink:href="#DejaVuSans-66" transform="translate(255.957031 0.015625)"/>
      <use xlink:href="#DejaVuSans-66" transform="translate(291.162109 0.015625)"/>
      <use xlink:href="#DejaVuSans-2d" transform="translate(326.367188 0.015625)"/>
      <use xlink:href="#DejaVuSans-64" transform="translate(362.451172 0.015625)"/>
      <use xlink:href="#DejaVuSans-69" transform="translate(425.927734 0.015625)"/>
      <use xlink:href="#DejaVuSans-61" transform="translate(453.710938 0.015625)"/>
      <use xlink:href="#DejaVuSans-67" transform="translate(514.990234 0.015625)"/>
      <use xlink:href="#DejaVuSans-6f" transform="translate(578.466797 0.015625)"/>
      <use xlink:href="#DejaVuSans-6e" transform="translate(639.648438 0.015625)"/>
      <use xlink:href="#DejaVuSans-61" transform="translate(703.027344 0.015625)"/>
      <use xlink:href="#DejaVuSans-6c" transform="translate(764.306641 0.015625)"/>
     </g>
    </g>
    <g id="line2d_39">
     <path d="M 536 260.803125 
L 546 260.803125 
L 556 260.803125 
" style="fill: none; stroke: #1f77b4; stroke-opacity: 0.5; stroke-width: 2; stroke-linecap: square"/>
    </g>
    <g id="text_33">
     <!-- XC$_{0,1}$ -->
     <g transform="translate(564 264.303125) scale(0.1 -0.1)">
      <use xlink:href="#DejaVuSans-58" transform="translate(0 0.78125)"/>
      <use xlink:href="#DejaVuSans-43" transform="translate(68.505859 0.78125)"/>
      <use xlink:href="#DejaVuSans-30" transform="translate(139.287109 -15.625) scale(0.7)"/>
      <use xlink:href="#DejaVuSans-2c" transform="translate(183.823242 -15.625) scale(0.7)"/>
      <use xlink:href="#DejaVuSans-31" transform="translate(219.711914 -15.625) scale(0.7)"/>
     </g>
    </g>
    <g id="line2d_40">
     <path d="M 536 275.901563 
L 546 275.901563 
L 556 275.901563 
" style="fill: none; stroke: #ff7f0e; stroke-opacity: 0.5; stroke-width: 2; stroke-linecap: square"/>
    </g>
    <g id="text_34">
     <!-- XC$_{0,2}$ -->
     <g transform="translate(564 279.401563) scale(0.1 -0.1)">
      <use xlink:href="#DejaVuSans-58" transform="translate(0 0.78125)"/>
      <use xlink:href="#DejaVuSans-43" transform="translate(68.505859 0.78125)"/>
      <use xlink:href="#DejaVuSans-30" transform="translate(139.287109 -15.625) scale(0.7)"/>
      <use xlink:href="#DejaVuSans-2c" transform="translate(183.823242 -15.625) scale(0.7)"/>
      <use xlink:href="#DejaVuSans-32" transform="translate(219.711914 -15.625) scale(0.7)"/>
     </g>
    </g>
    <g id="line2d_41">
     <path d="M 536 291 
L 546 291 
L 556 291 
" style="fill: none; stroke: #2ca02c; stroke-opacity: 0.5; stroke-width: 2; stroke-linecap: square"/>
    </g>
    <g id="text_35">
     <!-- XC$_{1,2}$ -->
     <g transform="translate(564 294.5) scale(0.1 -0.1)">
      <use xlink:href="#DejaVuSans-58" transform="translate(0 0.78125)"/>
      <use xlink:href="#DejaVuSans-43" transform="translate(68.505859 0.78125)"/>
      <use xlink:href="#DejaVuSans-31" transform="translate(139.287109 -15.625) scale(0.7)"/>
      <use xlink:href="#DejaVuSans-2c" transform="translate(183.823242 -15.625) scale(0.7)"/>
      <use xlink:href="#DejaVuSans-32" transform="translate(219.711914 -15.625) scale(0.7)"/>
     </g>
    </g>
   </g>
  </g>
  <g id="legend_3">
   <g id="line2d_42">
    <path d="M 112.44 18.84 
L 124.44 18.84 
L 136.44 18.84 
" style="fill: none; stroke: #000000; stroke-width: 1.5; stroke-linecap: square"/>
   </g>
   <g id="text_36">
    <!-- $\text{XC}_{IJ} = \langle \Psi_I \vert \sum_{m &lt; n} 1/r_{mn} \vert \Psi_J \rangle - \text{J}[\mathbf{D}]_{IJ}$ (exact) -->
    <g transform="translate(146.04 23.04) scale(0.12 -0.12)">
     <defs>
      <path id="DejaVuSans-Oblique-49" d="M 1081 4666 
L 1716 4666 
L 806 0 
L 172 0 
L 1081 4666 
z
" transform="scale(0.015625)"/>
      <path id="DejaVuSans-Oblique-4a" d="M 1069 4666 
L 1703 4666 
L 856 325 
Q 691 -522 298 -901 
Q -94 -1281 -800 -1281 
L -1050 -1281 
L -947 -750 
L -750 -750 
Q -328 -750 -109 -509 
Q 109 -269 225 325 
L 1069 4666 
z
" transform="scale(0.015625)"/>
      <path id="DejaVuSans-3d" d="M 678 2906 
L 4684 2906 
L 4684 2381 
L 678 2381 
L 678 2906 
z
M 678 1631 
L 4684 1631 
L 4684 1100 
L 678 1100 
L 678 1631 
z
" transform="scale(0.015625)"/>
      <path id="DejaVuSans-27e8" d="M 572 2006 
L 1453 4856 
L 1984 4856 
L 1103 2006 
L 1984 -844 
L 1453 -844 
L 572 2006 
z
" transform="scale(0.015625)"/>
      <path id="DejaVuSans-3a8" d="M 2206 0 
Q 2209 419 2206 969 
Q 1538 969 950 1625 
Q 375 2263 359 3388 
L 359 4666 
L 1025 4666 
L 1025 3388 
Q 1025 2506 1431 1994 
Q 1775 1556 2206 1513 
L 2206 4666 
L 2838 4666 
L 2838 1513 
Q 3269 1556 3613 1994 
Q 4019 2506 4019 3388 
L 4019 4666 
L 4684 4666 
L 4684 3388 
Q 4669 2263 4094 1625 
Q 3506 969 2838 969 
Q 2834 744 2838 0 
L 2206 0 
z
" transform="scale(0.015625)"/>
      <path id="DejaVuSans-7c" d="M 1344 4891 
L 1344 -1509 
L 813 -1509 
L 813 4891 
L 1344 4891 
z
" transform="scale(0.015625)"/>
      <path id="DejaVuSansDisplay-2211" d="M 244 6509 
L 5803 6509 
L 5803 5656 
L 1566 5656 
L 4534 2488 
L 1469 -888 
L 5919 -888 
L 5919 -1738 
L 109 -1738 
L 109 -1078 
L 3316 2463 
L 244 5728 
L 244 6509 
z
" transform="scale(0.015625)"/>
      <path id="DejaVuSans-Oblique-6d" d="M 5747 2113 
L 5338 0 
L 4763 0 
L 5166 2094 
Q 5191 2228 5203 2325 
Q 5216 2422 5216 2491 
Q 5216 2772 5059 2928 
Q 4903 3084 4622 3084 
Q 4203 3084 3875 2770 
Q 3547 2456 3450 1953 
L 3066 0 
L 2491 0 
L 2900 2094 
Q 2925 2209 2937 2307 
Q 2950 2406 2950 2484 
Q 2950 2769 2794 2926 
Q 2638 3084 2363 3084 
Q 1938 3084 1609 2770 
Q 1281 2456 1184 1953 
L 800 0 
L 225 0 
L 909 3500 
L 1484 3500 
L 1375 2956 
Q 1609 3263 1923 3423 
Q 2238 3584 2597 3584 
Q 2978 3584 3223 3384 
Q 3469 3184 3519 2828 
Q 3781 3197 4126 3390 
Q 4472 3584 4856 3584 
Q 5306 3584 5551 3325 
Q 5797 3066 5797 2591 
Q 5797 2488 5784 2364 
Q 5772 2241 5747 2113 
z
" transform="scale(0.015625)"/>
      <path id="DejaVuSans-3c" d="M 4684 3150 
L 1459 2003 
L 4684 863 
L 4684 294 
L 678 1747 
L 678 2266 
L 4684 3719 
L 4684 3150 
z
" transform="scale(0.015625)"/>
      <path id="DejaVuSans-Oblique-6e" d="M 3566 2113 
L 3156 0 
L 2578 0 
L 2988 2091 
Q 3016 2238 3031 2350 
Q 3047 2463 3047 2528 
Q 3047 2791 2881 2937 
Q 2716 3084 2419 3084 
Q 1956 3084 1622 2776 
Q 1288 2469 1184 1941 
L 800 0 
L 225 0 
L 903 3500 
L 1478 3500 
L 1363 2950 
Q 1603 3253 1940 3418 
Q 2278 3584 2650 3584 
Q 3113 3584 3367 3334 
Q 3622 3084 3622 2631 
Q 3622 2519 3608 2391 
Q 3594 2263 3566 2113 
z
" transform="scale(0.015625)"/>
      <path id="DejaVuSans-Oblique-72" d="M 2853 2969 
Q 2766 3016 2653 3041 
Q 2541 3066 2413 3066 
Q 1953 3066 1609 2717 
Q 1266 2369 1153 1784 
L 800 0 
L 225 0 
L 909 3500 
L 1484 3500 
L 1375 2956 
Q 1603 3259 1920 3421 
Q 2238 3584 2597 3584 
Q 2691 3584 2781 3573 
Q 2872 3563 2963 3538 
L 2853 2969 
z
" transform="scale(0.015625)"/>
      <path id="DejaVuSans-27e9" d="M 1925 2006 
L 1044 -844 
L 513 -844 
L 1394 2006 
L 513 4856 
L 1044 4856 
L 1925 2006 
z
" transform="scale(0.015625)"/>
      <path id="DejaVuSans-4a" d="M 628 4666 
L 1259 4666 
L 1259 325 
Q 1259 -519 939 -900 
Q 619 -1281 -91 -1281 
L -331 -1281 
L -331 -750 
L -134 -750 
Q 284 -750 456 -515 
Q 628 -281 628 325 
L 628 4666 
z
" transform="scale(0.015625)"/>
      <path id="DejaVuSans-5b" d="M 550 4863 
L 1875 4863 
L 1875 4416 
L 1125 4416 
L 1125 -397 
L 1875 -397 
L 1875 -844 
L 550 -844 
L 550 4863 
z
" transform="scale(0.015625)"/>
      <path id="DejaVuSans-Bold-44" d="M 1791 3756 
L 1791 909 
L 2222 909 
Q 2959 909 3348 1275 
Q 3738 1641 3738 2338 
Q 3738 3031 3350 3393 
Q 2963 3756 2222 3756 
L 1791 3756 
z
M 588 4666 
L 1856 4666 
Q 2919 4666 3439 4514 
Q 3959 4363 4331 4000 
Q 4659 3684 4818 3271 
Q 4978 2859 4978 2338 
Q 4978 1809 4818 1395 
Q 4659 981 4331 666 
Q 3956 303 3431 151 
Q 2906 0 1856 0 
L 588 0 
L 588 4666 
z
" transform="scale(0.015625)"/>
      <path id="DejaVuSans-5d" d="M 1947 4863 
L 1947 -844 
L 622 -844 
L 622 -397 
L 1369 -397 
L 1369 4416 
L 622 4416 
L 622 4863 
L 1947 4863 
z
" transform="scale(0.015625)"/>
      <path id="DejaVuSans-28" d="M 1984 4856 
Q 1566 4138 1362 3434 
Q 1159 2731 1159 2009 
Q 1159 1288 1364 580 
Q 1569 -128 1984 -844 
L 1484 -844 
Q 1016 -109 783 600 
Q 550 1309 550 2009 
Q 550 2706 781 3412 
Q 1013 4119 1484 4856 
L 1984 4856 
z
" transform="scale(0.015625)"/>
      <path id="DejaVuSans-29" d="M 513 4856 
L 1013 4856 
Q 1481 4119 1714 3412 
Q 1947 2706 1947 2009 
Q 1947 1309 1714 600 
Q 1481 -109 1013 -844 
L 513 -844 
Q 928 -128 1133 580 
Q 1338 1288 1338 2009 
Q 1338 2731 1133 3434 
Q 928 4138 513 4856 
z
" transform="scale(0.015625)"/>
     </defs>
     <use xlink:href="#DejaVuSans-58" transform="translate(0 0.296875)"/>
     <use xlink:href="#DejaVuSans-43" transform="translate(68.505859 0.296875)"/>
     <use xlink:href="#DejaVuSans-Oblique-49" transform="translate(139.287109 -16.109375) scale(0.7)"/>
     <use xlink:href="#DejaVuSans-Oblique-4a" transform="translate(159.931641 -16.109375) scale(0.7)"/>
     <use xlink:href="#DejaVuSans-3d" transform="translate(202.792969 0.296875)"/>
     <use xlink:href="#DejaVuSans-27e8" transform="translate(306.064453 0.296875)"/>
     <use xlink:href="#DejaVuSans-3a8" transform="translate(345.078125 0.296875)"/>
     <use xlink:href="#DejaVuSans-Oblique-49" transform="translate(424.746094 -16.109375) scale(0.7)"/>
     <use xlink:href="#DejaVuSans-7c" transform="translate(448.125 0.296875)"/>
     <use xlink:href="#DejaVuSansDisplay-2211" transform="translate(535.816406 0.296875)"/>
     <use xlink:href="#DejaVuSans-Oblique-6d" transform="translate(481.816406 -86.285937) scale(0.7)"/>
     <use xlink:href="#DejaVuSans-3c" transform="translate(563.642578 -86.285937) scale(0.7)"/>
     <use xlink:href="#DejaVuSans-Oblique-6e" transform="translate(635.932617 -86.285937) scale(0.7)"/>
     <use xlink:href="#DejaVuSans-31" transform="translate(680.297852 0.296875)"/>
     <use xlink:href="#DejaVuSans-2f" transform="translate(743.920898 0.296875)"/>
     <use xlink:href="#DejaVuSans-Oblique-72" transform="translate(777.612305 0.296875)"/>
     <use xlink:href="#DejaVuSans-Oblique-6d" transform="translate(818.725586 -16.109375) scale(0.7)"/>
     <use xlink:href="#DejaVuSans-Oblique-6e" transform="translate(886.914062 -16.109375) scale(0.7)"/>
     <use xlink:href="#DejaVuSans-7c" transform="translate(934.013672 0.296875)"/>
     <use xlink:href="#DejaVuSans-3a8" transform="translate(967.705078 0.296875)"/>
     <use xlink:href="#DejaVuSans-Oblique-4a" transform="translate(1047.373047 -16.109375) scale(0.7)"/>
     <use xlink:href="#DejaVuSans-27e9" transform="translate(1070.751953 0.296875)"/>
     <use xlink:href="#DejaVuSans-2212" transform="translate(1129.248047 0.296875)"/>
     <use xlink:href="#DejaVuSans-4a" transform="translate(1232.519531 0.296875)"/>
     <use xlink:href="#DejaVuSans-5b" transform="translate(1262.011719 0.296875)"/>
     <use xlink:href="#DejaVuSans-Bold-44" transform="translate(1301.025391 0.296875)"/>
     <use xlink:href="#DejaVuSans-5d" transform="translate(1384.033203 0.296875)"/>
     <use xlink:href="#DejaVuSans-Oblique-49" transform="translate(1424.003906 -16.109375) scale(0.7)"/>
     <use xlink:href="#DejaVuSans-Oblique-4a" transform="translate(1444.648438 -16.109375) scale(0.7)"/>
     <use xlink:href="#DejaVuSans-20" transform="translate(1468.027344 0.296875)"/>
     <use xlink:href="#DejaVuSans-28" transform="translate(1499.814453 0.296875)"/>
     <use xlink:href="#DejaVuSans-65" transform="translate(1538.828125 0.296875)"/>
     <use xlink:href="#DejaVuSans-78" transform="translate(1600.351562 0.296875)"/>
     <use xlink:href="#DejaVuSans-61" transform="translate(1659.53125 0.296875)"/>
     <use xlink:href="#DejaVuSans-63" transform="translate(1720.810547 0.296875)"/>
     <use xlink:href="#DejaVuSans-74" transform="translate(1775.791016 0.296875)"/>
     <use xlink:href="#DejaVuSans-29" transform="translate(1815 0.296875)"/>
    </g>
   </g>
   <g id="line2d_43">
    <path d="M 392.64 18.84 
L 404.64 18.84 
L 416.64 18.84 
" style="fill: none; stroke-dasharray: 5.55,2.4; stroke-dashoffset: 0; stroke: #000000; stroke-width: 1.5"/>
   </g>
   <g id="text_37">
    <!-- $-\text{K}^{LSDA}[\mathbf{D}]_{IJ} + \text{C}^{LDA}[\mathbf{D}]_{IJ} + \text{SIC}~\delta_{IJ}$ -->
    <g transform="translate(426.24 23.04) scale(0.12 -0.12)">
     <defs>
      <path id="DejaVuSans-4b" d="M 628 4666 
L 1259 4666 
L 1259 2694 
L 3353 4666 
L 4166 4666 
L 1850 2491 
L 4331 0 
L 3500 0 
L 1259 2247 
L 1259 0 
L 628 0 
L 628 4666 
z
" transform="scale(0.015625)"/>
      <path id="DejaVuSans-Oblique-4c" d="M 1075 4666 
L 1709 4666 
L 909 525 
L 3181 525 
L 3078 0 
L 172 0 
L 1075 4666 
z
" transform="scale(0.015625)"/>
      <path id="DejaVuSans-Oblique-53" d="M 3859 4513 
L 3738 3897 
Q 3422 4066 3111 4152 
Q 2800 4238 2509 4238 
Q 1944 4238 1609 3991 
Q 1275 3744 1275 3334 
Q 1275 3109 1398 2989 
Q 1522 2869 2034 2731 
L 2413 2638 
Q 3053 2472 3303 2217 
Q 3553 1963 3553 1503 
Q 3553 797 2998 353 
Q 2444 -91 1538 -91 
Q 1166 -91 791 -17 
Q 416 56 38 206 
L 166 856 
Q 513 641 861 531 
Q 1209 422 1556 422 
Q 2147 422 2503 684 
Q 2859 947 2859 1369 
Q 2859 1650 2717 1795 
Q 2575 1941 2106 2059 
L 1728 2156 
Q 1081 2325 845 2545 
Q 609 2766 609 3163 
Q 609 3859 1145 4304 
Q 1681 4750 2541 4750 
Q 2875 4750 3203 4690 
Q 3531 4631 3859 4513 
z
" transform="scale(0.015625)"/>
      <path id="DejaVuSans-Oblique-44" d="M 1081 4666 
L 2438 4666 
Q 3519 4666 4070 4208 
Q 4622 3750 4622 2847 
Q 4622 2250 4412 1698 
Q 4203 1147 3834 769 
Q 3463 381 2891 190 
Q 2319 0 1538 0 
L 172 0 
L 1081 4666 
z
M 1613 4147 
L 909 519 
L 1734 519 
Q 2794 519 3375 1128 
Q 3956 1738 3956 2847 
Q 3956 3519 3581 3833 
Q 3206 4147 2406 4147 
L 1613 4147 
z
" transform="scale(0.015625)"/>
      <path id="DejaVuSans-Oblique-41" d="M 2356 4666 
L 3072 4666 
L 3938 0 
L 3278 0 
L 3084 1197 
L 984 1197 
L 325 0 
L -341 0 
L 2356 4666 
z
M 2584 4044 
L 1275 1722 
L 2988 1722 
L 2584 4044 
z
" transform="scale(0.015625)"/>
      <path id="DejaVuSans-2b" d="M 2944 4013 
L 2944 2272 
L 4684 2272 
L 4684 1741 
L 2944 1741 
L 2944 0 
L 2419 0 
L 2419 1741 
L 678 1741 
L 678 2272 
L 2419 2272 
L 2419 4013 
L 2944 4013 
z
" transform="scale(0.015625)"/>
      <path id="DejaVuSans-53" d="M 3425 4513 
L 3425 3897 
Q 3066 4069 2747 4153 
Q 2428 4238 2131 4238 
Q 1616 4238 1336 4038 
Q 1056 3838 1056 3469 
Q 1056 3159 1242 3001 
Q 1428 2844 1947 2747 
L 2328 2669 
Q 3034 2534 3370 2195 
Q 3706 1856 3706 1288 
Q 3706 609 3251 259 
Q 2797 -91 1919 -91 
Q 1588 -91 1214 -16 
Q 841 59 441 206 
L 441 856 
Q 825 641 1194 531 
Q 1563 422 1919 422 
Q 2459 422 2753 634 
Q 3047 847 3047 1241 
Q 3047 1584 2836 1778 
Q 2625 1972 2144 2069 
L 1759 2144 
Q 1053 2284 737 2584 
Q 422 2884 422 3419 
Q 422 4038 858 4394 
Q 1294 4750 2059 4750 
Q 2388 4750 2728 4690 
Q 3069 4631 3425 4513 
z
" transform="scale(0.015625)"/>
      <path id="DejaVuSans-49" d="M 628 4666 
L 1259 4666 
L 1259 0 
L 628 0 
L 628 4666 
z
" transform="scale(0.015625)"/>
      <path id="DejaVuSans-Oblique-3b4" d="M 3472 4053 
Q 3197 4272 2450 4272 
Q 1659 4272 1588 3906 
Q 1531 3619 2328 3469 
Q 2953 3353 3253 3003 
Q 3616 2581 3447 1716 
Q 3284 888 2763 400 
Q 2238 -91 1488 -91 
Q 741 -91 406 400 
Q 72 888 241 1747 
Q 363 2384 891 2900 
Q 1097 3100 1353 3213 
Q 913 3459 1000 3900 
Q 1166 4750 2544 4750 
Q 3234 4750 3566 4531 
L 3472 4053 
z
M 1753 3056 
Q 1525 2966 1306 2738 
Q 969 2384 847 1747 
Q 722 1113 919 756 
Q 1119 397 1584 397 
Q 2044 397 2381 759 
Q 2722 1122 2838 1716 
Q 2956 2338 2731 2638 
Q 2491 2959 2103 2994 
Q 1906 3013 1753 3056 
z
" transform="scale(0.015625)"/>
     </defs>
     <use xlink:href="#DejaVuSans-2212" transform="translate(0 0.765625)"/>
     <use xlink:href="#DejaVuSans-4b" transform="translate(83.789062 0.765625)"/>
     <use xlink:href="#DejaVuSans-Oblique-4c" transform="translate(150.322266 39.046875) scale(0.7)"/>
     <use xlink:href="#DejaVuSans-Oblique-53" transform="translate(189.321289 39.046875) scale(0.7)"/>
     <use xlink:href="#DejaVuSans-Oblique-44" transform="translate(233.754883 39.046875) scale(0.7)"/>
     <use xlink:href="#DejaVuSans-Oblique-41" transform="translate(287.65625 39.046875) scale(0.7)"/>
     <use xlink:href="#DejaVuSans-5b" transform="translate(338.276367 0.765625)"/>
     <use xlink:href="#DejaVuSans-Bold-44" transform="translate(377.290039 0.765625)"/>
     <use xlink:href="#DejaVuSans-5d" transform="translate(460.297852 0.765625)"/>
     <use xlink:href="#DejaVuSans-Oblique-49" transform="translate(500.268555 -15.640625) scale(0.7)"/>
     <use xlink:href="#DejaVuSans-Oblique-4a" transform="translate(520.913086 -15.640625) scale(0.7)"/>
     <use xlink:href="#DejaVuSans-2b" transform="translate(563.774414 0.765625)"/>
     <use xlink:href="#DejaVuSans-43" transform="translate(667.045898 0.765625)"/>
     <use xlink:href="#DejaVuSans-Oblique-4c" transform="translate(737.827148 39.046875) scale(0.7)"/>
     <use xlink:href="#DejaVuSans-Oblique-44" transform="translate(776.826172 39.046875) scale(0.7)"/>
     <use xlink:href="#DejaVuSans-Oblique-41" transform="translate(830.727539 39.046875) scale(0.7)"/>
     <use xlink:href="#DejaVuSans-5b" transform="translate(881.347656 0.765625)"/>
     <use xlink:href="#DejaVuSans-Bold-44" transform="translate(920.361328 0.765625)"/>
     <use xlink:href="#DejaVuSans-5d" transform="translate(1003.369141 0.765625)"/>
     <use xlink:href="#DejaVuSans-Oblique-49" transform="translate(1043.339844 -15.640625) scale(0.7)"/>
     <use xlink:href="#DejaVuSans-Oblique-4a" transform="translate(1063.984375 -15.640625) scale(0.7)"/>
     <use xlink:href="#DejaVuSans-2b" transform="translate(1106.845703 0.765625)"/>
     <use xlink:href="#DejaVuSans-53" transform="translate(1210.117188 0.765625)"/>
     <use xlink:href="#DejaVuSans-49" transform="translate(1273.59375 0.765625)"/>
     <use xlink:href="#DejaVuSans-43" transform="translate(1303.085938 0.765625)"/>
     <use xlink:href="#DejaVuSans-Oblique-3b4" transform="translate(1405.380535 0.765625)"/>
     <use xlink:href="#DejaVuSans-Oblique-49" transform="translate(1466.562175 -15.640625) scale(0.7)"/>
     <use xlink:href="#DejaVuSans-Oblique-4a" transform="translate(1487.206707 -15.640625) scale(0.7)"/>
    </g>
   </g>
  </g>
 </g>
 <defs>
  <clipPath id="p4ae83557ed">
   <rect x="90" y="43.2" width="254.634146" height="262.8"/>
  </clipPath>
  <clipPath id="p4be48c50d8">
   <rect x="357.365854" y="43.2" width="254.634146" height="262.8"/>
  </clipPath>
 </defs>
</svg>
